<svg viewBox="0 0 1280 300" xmlns="http://www.w3.org/2000/svg" role="img" aria-label="Charon — the ferryman for your pull requests">
  <defs>
    <pattern id="dots" width="14" height="14" patternUnits="userSpaceOnUse">
      <circle cx="1.2" cy="1.2" r="1.2" fill="#e9e4d4" opacity="0.05"/>
    </pattern>
    <pattern id="hatch" width="8" height="8" patternUnits="userSpaceOnUse" patternTransform="rotate(45)">
      <rect width="3" height="8" fill="#ff4f00" opacity="0.85"/>
    </pattern>
  </defs>

  <!-- ground -->
  <rect width="1280" height="300" fill="#0e0d0a"/>
  <rect width="1280" height="300" fill="url(#dots)"/>
  <rect x="0" y="0" width="1280" height="2" fill="#2e2b21"/>
  <rect x="0" y="298" width="1280" height="2" fill="#2e2b21"/>

  <!-- corner brackets -->
  <path d="M14 30 V14 H30" fill="none" stroke="#ff4f00" stroke-width="3"/>
  <path d="M1266 270 V286 H1250" fill="none" stroke="#ff4f00" stroke-width="3"/>

  <!-- moon mark: Charon — bone disk, dusty red cap, equatorial chasm -->
  <g transform="translate(60,82)">
    <defs>
      <clipPath id="moonmark">
        <circle cx="24" cy="24" r="24"/>
      </clipPath>
    </defs>
    <circle cx="24" cy="24" r="24" fill="#cfc9ba"/>
    <g clip-path="url(#moonmark)">
      <ellipse cx="26" cy="4" rx="23" ry="14" fill="#9c4a22"/>
      <path d="M0 26 q12 -4 24 0 t24 -1.5" fill="none" stroke="#5d5749" stroke-width="2.4" opacity="0.6"/>
      <circle cx="16" cy="36" r="3.4" fill="#5d5749" opacity="0.35"/>
      <circle cx="33" cy="33" r="2.2" fill="#5d5749" opacity="0.3"/>
    </g>
    <circle cx="24" cy="24" r="24" fill="none" stroke="#0e0d0a" stroke-width="3" opacity="0.5"/>
  </g>

  <!-- wordmark -->
  <text x="128" y="138" font-family="-apple-system, 'Helvetica Neue', Arial, sans-serif" font-weight="800" font-size="64" letter-spacing="8" fill="#e9e4d4" textLength="360" lengthAdjust="spacingAndGlyphs">CHARON</text>

  <!-- hatched accent -->
  <rect x="130" y="156" width="200" height="8" fill="url(#hatch)"/>
  <rect x="338" y="156" width="8" height="8" fill="#cff24d"/>

  <!-- tagline -->
  <text x="130" y="196" font-family="ui-monospace, 'SF Mono', Menlo, Consolas, monospace" font-size="17" letter-spacing="3" fill="#9b9480" textLength="600" lengthAdjust="spacingAndGlyphs">THE FERRYMAN FOR YOUR PULL REQUESTS</text>
  <text x="130" y="226" font-family="ui-monospace, 'SF Mono', Menlo, Consolas, monospace" font-size="13" letter-spacing="2" fill="#6d6757" textLength="560" lengthAdjust="spacingAndGlyphs">REVIEW THE FARE · WORK THE CROSSING · LAND THEM ON MAIN</text>

  <!-- the crossing: a branch ferried across black water to the far shore (main) -->
  <g transform="translate(860,48)">
    <!-- river ripples -->
    <g stroke="#2e2b21" stroke-width="3" stroke-linecap="round">
      <line x1="6"   y1="44"  x2="84"  y2="44"/>
      <line x1="120" y1="44"  x2="210" y2="44"/>
      <line x1="246" y1="44"  x2="320" y2="44"/>
      <line x1="40"  y1="84"  x2="150" y2="84"/>
      <line x1="186" y1="84"  x2="300" y2="84"/>
      <line x1="0"   y1="124" x2="96"  y2="124"/>
      <line x1="132" y1="124" x2="250" y2="124"/>
      <line x1="60"  y1="164" x2="180" y2="164"/>
      <line x1="216" y1="164" x2="340" y2="164"/>
    </g>

    <!-- near shore (branches wait) / far shore (main) -->
    <rect x="-6" y="6" width="26" height="24" fill="#2e2b21"/>
    <rect x="-6" y="6" width="26" height="6" fill="#cff24d"/>
    <rect x="334" y="170" width="32" height="24" fill="#2e2b21"/>

    <!-- crossing route + wake -->
    <path d="M14 22 C 90 24, 110 92, 184 104 S 300 168, 352 180" fill="none" stroke="#cff24d" stroke-width="5" stroke-linejoin="round"/>

    <!-- obol tolls along the route (your approval gates) -->
    <circle cx="110" cy="64"  r="7" fill="#0e0d0a" stroke="#ff4f00" stroke-width="4"/>
    <circle cx="248" cy="138" r="7" fill="#0e0d0a" stroke="#ff4f00" stroke-width="4"/>

    <!-- the ferry, mid-crossing -->
    <g transform="translate(150,86) rotate(20)">
      <path d="M0 14 H64 L52 30 H12 Z" fill="#15140f" stroke="#e9e4d4" stroke-width="2.5"/>
      <rect x="28" y="-2" width="3" height="16" fill="#9b9480"/>
      <rect x="22" y="0" width="14" height="8" fill="#ff4f00"/>
    </g>

    <!-- arrival marker on the far shore (merge onto main) -->
    <rect x="338" y="172" width="20" height="20" fill="#ff4f00"/>

    <text x="0" y="222" font-family="ui-monospace, 'SF Mono', Menlo, Consolas, monospace" font-size="12" letter-spacing="2" fill="#6d6757" textLength="360" lengthAdjust="spacingAndGlyphs">FEATURE BRANCHES ──── THE FARE ──── MAIN</text>
  </g>
</svg>
