<svg viewBox="0 0 1280 300" xmlns="http://www.w3.org/2000/svg" role="img" aria-label="Charon — Code Review Agent">
  <defs>
    <pattern id="dots" width="14" height="14" patternUnits="userSpaceOnUse">
      <circle cx="1.2" cy="1.2" r="1.2" fill="#e9e4d4" opacity="0.05"/>
    </pattern>
    <pattern id="hatch" width="8" height="8" patternUnits="userSpaceOnUse" patternTransform="rotate(45)">
      <rect width="3" height="8" fill="#ff4f00" opacity="0.85"/>
    </pattern>
    <!-- big moon: kept dim so the wordmark leads -->
    <radialGradient id="bigmoon" cx="38%" cy="32%" r="80%">
      <stop offset="0%" stop-color="#8d8678"/>
      <stop offset="50%" stop-color="#6e6859"/>
      <stop offset="80%" stop-color="#4f4a3f"/>
      <stop offset="100%" stop-color="#332f29"/>
    </radialGradient>
    <radialGradient id="biglimb" cx="36%" cy="32%" r="82%">
      <stop offset="62%" stop-color="#0e0d0a" stop-opacity="0"/>
      <stop offset="100%" stop-color="#0e0d0a" stop-opacity="0.72"/>
    </radialGradient>
    <radialGradient id="bigcap" cx="50%" cy="16%" r="85%">
      <stop offset="0%" stop-color="#8f4220"/>
      <stop offset="55%" stop-color="#94481f" stop-opacity="0.8"/>
      <stop offset="100%" stop-color="#94481f" stop-opacity="0"/>
    </radialGradient>
    <clipPath id="bigmoonclip">
      <circle cx="1108" cy="178" r="216"/>
    </clipPath>
    <clipPath id="banner">
      <rect x="0" y="2" width="1280" height="296"/>
    </clipPath>
    <clipPath id="markclip">
      <circle cx="24" cy="24" r="24"/>
    </clipPath>
  </defs>

  <!-- ground -->
  <rect width="1280" height="300" fill="#0e0d0a"/>
  <rect width="1280" height="300" fill="url(#dots)"/>

  <!-- the moon, cresting the right edge -->
  <g clip-path="url(#banner)">
    <circle cx="1108" cy="178" r="216" fill="url(#bigmoon)"/>
    <g clip-path="url(#bigmoonclip)">
      <ellipse cx="1124" cy="-14" rx="200" ry="116" fill="url(#bigcap)"/>
      <path d="M900 196 q56 -20 108 -6 t96 18 q54 12 104 -8 t96 -32" fill="none" stroke="#3f3b32" stroke-width="9" opacity="0.55" stroke-linecap="round"/>
      <path d="M904 188 q56 -20 106 -8 t96 18 q54 12 102 -8 t94 -30" fill="none" stroke="#c9c2b1" stroke-width="3.5" opacity="0.35" stroke-linecap="round"/>
      <circle cx="1010" cy="282" r="26" fill="#2e2a23" opacity="0.45"/>
      <circle cx="1005" cy="277" r="26" fill="none" stroke="#b9b2a1" stroke-width="4" opacity="0.3"/>
      <circle cx="1146" cy="252" r="15" fill="#2e2a23" opacity="0.4"/>
      <circle cx="1143" cy="249" r="15" fill="none" stroke="#b9b2a1" stroke-width="3" opacity="0.28"/>
      <circle cx="954" cy="112" r="12" fill="#2e2a23" opacity="0.3"/>
      <circle cx="1108" cy="178" r="216" fill="url(#biglimb)"/>
    </g>
  </g>

  <!-- frame -->
  <rect x="0" y="0" width="1280" height="2" fill="#2e2b21"/>
  <rect x="0" y="298" width="1280" height="2" fill="#2e2b21"/>
  <path d="M14 30 V14 H30" fill="none" stroke="#ff4f00" stroke-width="3"/>
  <path d="M1266 270 V286 H1250" fill="none" stroke="#ff4f00" stroke-width="3"/>

  <!-- moon mark -->
  <g transform="translate(60,86)">
    <circle cx="24" cy="24" r="24" fill="#cfc9ba"/>
    <g clip-path="url(#markclip)">
      <ellipse cx="26" cy="4" rx="23" ry="14" fill="#9c4a22"/>
      <path d="M0 26 q12 -4 24 0 t24 -1.5" fill="none" stroke="#5d5749" stroke-width="2.4" opacity="0.6"/>
      <circle cx="16" cy="36" r="3.4" fill="#5d5749" opacity="0.35"/>
      <circle cx="33" cy="33" r="2.2" fill="#5d5749" opacity="0.3"/>
    </g>
    <circle cx="24" cy="24" r="24" fill="none" stroke="#0e0d0a" stroke-width="3" opacity="0.5"/>
  </g>

  <!-- wordmark -->
  <text x="128" y="142" font-family="-apple-system, 'Helvetica Neue', Arial, sans-serif" font-weight="800" font-size="64" letter-spacing="8" fill="#e9e4d4" textLength="360" lengthAdjust="spacingAndGlyphs">CHARON</text>

  <!-- hatched accent -->
  <rect x="130" y="160" width="200" height="8" fill="url(#hatch)"/>
  <rect x="338" y="160" width="8" height="8" fill="#cff24d"/>

  <!-- one line, no theater -->
  <text x="130" y="202" font-family="ui-monospace, 'SF Mono', Menlo, Consolas, monospace" font-size="16" letter-spacing="3" fill="#9b9480" textLength="420" lengthAdjust="spacingAndGlyphs">CODE REVIEW AGENT</text>
</svg>
